<svg xmlns="http://www.w3.org/2000/svg" viewBox="0 0 200 200" role="img" aria-label="TESDA logo">
  <g fill="#1f58ad">
    <path d="M93 8h14l5 25a68 68 0 0 1 13 3l16-20 12 7-8 25a72 72 0 0 1 10 9l25-9 7 12-20 17a70 70 0 0 1 4 13l26 4v14l-26 5a70 70 0 0 1-4 13l20 16-7 12-25-8a72 72 0 0 1-10 9l8 25-12 7-16-20a68 68 0 0 1-13 3l-5 25H93l-5-25a68 68 0 0 1-13-3l-16 20-12-7 8-25a72 72 0 0 1-10-9l-25 8-7-12 20-16a70 70 0 0 1-4-13l-26-5V94l26-4a70 70 0 0 1 4-13L13 60l7-12 25 9a72 72 0 0 1 10-9l-8-25 12-7 16 20a68 68 0 0 1 13-3L93 8Zm7 36a56 56 0 1 0 0 112 56 56 0 0 0 0-112Z"/>
    <circle cx="100" cy="62" r="11"/>
    <path d="M42 68h19l29 25v59H75V101L42 74v-6Zm116 0h-19l-29 25v59h15v-51l33-27v-6Z"/>
    <path d="M68 76h16l16 14 16-14h16l-24 25v51H92v-51L68 76Z"/>
  </g>
</svg>
